<?xml version="1.0" encoding="utf-8"?>
<!-- Generator: Adobe Illustrator 19.2.1, SVG Export Plug-In . SVG Version: 6.00 Build 0)  -->
<svg version="1.1" id="Слой_1" xmlns="http://www.w3.org/2000/svg" xmlns:xlink="http://www.w3.org/1999/xlink" x="0px" y="0px"
	 viewBox="0 0 500 500" enable-background="new 0 0 500 500" xml:space="preserve">
<g>
	<path fill="#537087" d="M250,475.1c-60.1,0-116.6-23.4-159.1-65.9C48.4,366.7,25,310.1,25,250c0-60.1,23.4-116.7,65.9-159.2
		c42.5-42.5,99-65.9,159.1-65.9c60.1,0,116.6,23.4,159.1,65.9c87.7,87.8,87.7,230.5,0,318.3C366.7,451.6,310.2,475.1,250,475.1
		L250,475.1z"/>
	<g>
		<g>
			<path fill="#FFFFFF" d="M205.3,322.3c-4.9,0-9.8-1.9-13.5-5.6c-7.5-7.5-7.5-19.6,0-27l106.4-106.4c7.5-7.5,19.6-7.5,27,0
				c7.5,7.5,7.5,19.6,0,27L218.8,316.7C215,320.5,210.2,322.3,205.3,322.3L205.3,322.3z"/>
		</g>
		<g>
			<path fill="#FFFFFF" d="M311.7,322.3c-4.9,0-9.8-1.9-13.5-5.6L191.8,210.3c-7.5-7.5-7.5-19.6,0-27c7.5-7.5,19.6-7.5,27,0
				l106.4,106.4c7.5,7.5,7.5,19.6,0,27C321.5,320.5,316.6,322.3,311.7,322.3L311.7,322.3z"/>
		</g>
	</g>
</g>
</svg>
