<?xml version="1.0" encoding="utf-8"?>
<!-- Generator: Adobe Illustrator 19.2.1, SVG Export Plug-In . SVG Version: 6.00 Build 0)  -->
<svg version="1.1" id="Слой_1" xmlns="http://www.w3.org/2000/svg" xmlns:xlink="http://www.w3.org/1999/xlink" x="0px" y="0px"
	 viewBox="0 0 500 500" enable-background="new 0 0 500 500" xml:space="preserve">
<g>
	<g>
		<path fill="#537087" d="M196.3,322.5c-4.9,0-9.8-1.9-13.5-5.6c-7.5-7.5-7.5-19.6,0-27l106.4-106.4c7.5-7.5,19.6-7.5,27,0
			c7.5,7.5,7.5,19.6,0,27L209.8,316.9C206,320.6,201.2,322.5,196.3,322.5L196.3,322.5z"/>
	</g>
	<g>
		<path fill="#537087" d="M302.7,322.5c-4.9,0-9.8-1.9-13.5-5.6L182.8,210.5c-7.5-7.5-7.5-19.6,0-27c7.5-7.5,19.6-7.5,27,0
			l106.4,106.4c7.5,7.5,7.5,19.6,0,27C312.5,320.6,307.6,322.5,302.7,322.5L302.7,322.5z"/>
	</g>
</g>
<g>
	<path fill="#537087" d="M249.4,475.2c-60.1,0-116.6-23.4-159.1-65.9c-42.5-42.5-65.9-99-65.9-159.2c0-60.1,23.4-116.7,65.9-159.2
		c42.5-42.5,99-65.9,159.1-65.9c60.1,0,116.6,23.4,159.1,65.9c87.7,87.8,87.7,230.5,0,318.3C366.1,451.8,309.6,475.2,249.4,475.2
		L249.4,475.2z M249.5,63.4c-49.9,0-96.8,19.4-132.1,54.7c-35.3,35.3-54.7,82.2-54.7,132.1s19.4,96.9,54.7,132.1
		c35.3,35.3,82.2,54.7,132.1,54.7c49.9,0,96.9-19.4,132.2-54.7c72.8-72.8,72.8-191.4,0-264.2C346.3,82.8,299.4,63.4,249.5,63.4
		L249.5,63.4z"/>
</g>
</svg>
